<?xml version="1.0" encoding="UTF-8" standalone="no"?>
<!-- Created with Inkscape (http://www.inkscape.org/) -->

<svg
        xmlns:inkscape="http://www.inkscape.org/namespaces/inkscape"
        xmlns:sodipodi="http://sodipodi.sourceforge.net/DTD/sodipodi-0.dtd"
        width="800mm"
        height="800mm"
        version="1.1"
        viewBox="0 0 800 800"
        xml:space="preserve"
        id="svg12"
        sodipodi:docname="Final-Stroked-trans.svg"
        inkscape:version="1.3.2 (091e20ef0f, 2023-11-25)"
        inkscape:export-filename="Final-Stroked-trans.png"
        inkscape:export-xdpi="96"
        inkscape:export-ydpi="96"
        xmlns="http://www.w3.org/2000/svg"><defs
     id="defs12" />
    <sodipodi:namedview
            id="namedview12"
            pagecolor="#ffffff"
            bordercolor="#000000"
            borderopacity="0.25"
            inkscape:showpageshadow="2"
            inkscape:pageopacity="0.0"
            inkscape:pagecheckerboard="0"
            inkscape:deskcolor="#d1d1d1"
            inkscape:document-units="mm"
            inkscape:zoom="0.26590625"
            inkscape:cx="1511.811"
            inkscape:cy="1511.811"
            inkscape:window-width="1920"
            inkscape:window-height="1008"
            inkscape:window-x="0"
            inkscape:window-y="0"
            inkscape:window-maximized="1"
            inkscape:current-layer="svg12"/>
    <g
            transform="matrix(2.0002005,0,0,1.8787101,-189.87677,-256.23714)"
            fill="none"
            id="g7"
            style="stroke-width:6.46245;stroke-dasharray:none"><g
       id="g5"
       style="stroke-width:6.46245;stroke-dasharray:none"><path
         d="m 330.84,433.4 -18.367,2.3349 -43.04,-0.58371 -23.85,-5.8372 -14.255,-11.382 -13.981,-23.349 -7.1276,-42.028 0.82243,-70.922 -0.27414,-20.138 -2.1931,-11.674 13.707,4.086 23.576,10.507 7.95,4.086 13.159,-16.636 25.495,-12.55 9.3207,2.3349 16.997,8.4639 12.885,15.177 3.0155,2.043 19.738,-9.6313 21.383,-7.0046 3.838,-0.58371 -0.82243,19.555 -0.82241,41.444 v 30.353 l -3.2897,35.899 -9.869,31.229 -18.367,18.387 z"
         fill="#e674c2"
         style="stroke-width:6.46245;stroke-dasharray:none;paint-order:fill markers stroke"
         id="path1" /><path
            d="m 378.43,252.3 c 6.7876,-5.6836 -0.13708,27.581 -0.13708,27.581 l 2.1931,47.865 -1.919,32.98 -3.0155,22.181 -10.966,30.353 -16.997,15.177 c 0,0 -19.421,6.0441 -14.529,4.6697 37.754,-10.607 3.9014,-146.08 45.37,-180.81 z"
            fill="#de50b4"
            style="stroke-width:6.46245;stroke-dasharray:none;paint-order:fill markers stroke"
            id="path2"/><path
            d="m 334.64,269.02 c 6.349,2.508 -15.12,14.446 -15.12,14.446 l -12.794,12.795 -9.3046,10.732 -10.855,-10.732 c 0,0 22.123,-37.493 48.074,-27.242 z"
            fill="#de50b4"
            style="stroke-width:6.46245;stroke-dasharray:none;paint-order:fill markers stroke"
            id="path3"/><path
            d="m 210.96,253.33 c -1.1794,-0.98856 1.9384,22.289 1.9384,22.289 l -0.38769,40.45 0.77538,33.02 0.77538,18.161 3.4892,19.399 8.5292,22.701 10.468,13.621 13.636,10.902 c 0,0 21.143,3.6621 18.719,2.3055 -52.867,-29.588 -8.1305,-141.09 -57.943,-182.85 z"
            fill="#ec9ad4"
            style="stroke-width:6.46245;stroke-dasharray:none;paint-order:fill markers stroke"
            id="path4"/><path
            d="m 311.26,246.21 c 5.4093,-0.78257 -11.369,-3.9737 -11.369,-3.9737 l -15.352,1.1674 -15.9,11.674 c 0,0 -15.527,10.275 -11.514,15.177 17.729,21.654 10.846,-17.782 54.135,-24.045 z"
            fill="#ec9ad4"
            style="stroke-width:6.46245;stroke-dasharray:none;paint-order:fill markers stroke"
            id="path5"/></g>
        <path
                d="m 296.98,306.58 c 20.532,-27.577 48.847,-48.217 83.657,-54.584 v 0 c -6.7464,47.555 15.083,147.89 -36.4,178.92 -2.9211,1.2551 -6.1108,2.3001 -9.4857,3.1646 m -78.28,-0.2895 c 4.532,1.1589 9.3982,1.9928 14.397,2.573 m 0,0 c 7.7206,0.89611 15.757,1.187 23.367,1.1357 m 0,0 c 8.8633,-0.0598 17.148,-0.58402 23.679,-1.1572 m 0,0 c 8.4822,-0.74435 14.009,-1.5713 14.009,-1.5713 0.0222,-0.32789 0.0434,-0.65605 0.0636,-0.98447 m 0,0 c 2.6774,-43.351 -10.865,-91.258 -37.743,-127.3 m 0,0 c -20.533,-27.534 -48.85,-48.141 -83.662,-54.498 v 0 c 6.7468,47.48 -15.084,147.66 36.402,178.64 2.9212,1.2531 6.1111,2.2965 9.4863,3.1596"
                fill="none"
                stroke="#000000"
                stroke-linecap="square"
                stroke-miterlimit="10.9"
                stroke-width="5.0576"
                style="stroke-width:6.46245;stroke-dasharray:none;paint-order:fill markers stroke"
                id="path6"/>
        <path
                transform="matrix(1.0069,0,0,0.70562,-2.0569,78.998)"
                d="m 256.34,269.98 c 3.8703,-10.126 12.565,-23.106 19.858,-29.417 7.4609,-6.4562 15.28,-10.502 20.34,-10.03 m 38.65,39.447 c -3.8703,-10.126 -12.565,-23.106 -19.858,-29.417 -7.4609,-6.4562 -15.28,-10.502 -20.34,-10.03"
                fill="none"
                stroke="#000000"
                stroke-linecap="square"
                stroke-miterlimit="10.9"
                stroke-width="6"
                style="stroke-width:7.66688;stroke-dasharray:none;paint-order:fill markers stroke"
                id="path7"/></g>
    <g
            id="g11"
            transform="matrix(1.9607887,0,0,1.9607887,-384.2674,-390.13548)"><path
       d="m 529.64,519.57 41.387,-85.011 14.821,-8.3892 1.9575,-34.396 -31.879,14.262 -0.27964,15.94 -38.311,74.944 c 0,0 -109.74,26.235 -109.34,27.817 l 0.55931,75.224 30.201,-24.049 -10.347,-12.863 -1.3982,-10.347 4.4743,-5.3132 z"
       fill="#45bae7"
       style="paint-order:fill markers stroke"
       id="path8" />
        <path
                d="m 397.09,599.8 -31.32,-21.812 11.745,-14.541 1.9575,-10.347 -3.915,-6.7114 -100.39,-27.653 -61.801,-122.2 76.342,-139.54 115.21,-44.463 95.637,36.633 15.66,-0.55928 17.897,27.684 v 2.2371 l -29.922,3.3557 -8.6689,-11.186 -89.765,-34.116 -103.47,39.15 -61.241,118.57 50.895,105.42 104.59,24.577 z"
                fill="#35b4e5"
                style="paint-order:fill markers stroke"
                id="path9"/>
        <path
                d="m 404.92,212.53 0.27963,12.025 -108.78,42.226 -69.023,128.91 -14.589,0.55928 76.342,-137.86 z"
                fill="#79d4f0"
                style="paint-order:fill markers stroke"
                id="path10"/>
        <path
                d="m 585.48,393.66 0.60727,32.66 -14.632,8.3049 -43.996,86.905 -96.792,26.991 -3.757,7.7117 3.757,11.271 9.4914,9.0959 -29.66,19.774 -1.1864,-18.192 10.282,-10.875 c -4.4326,-14.139 -3.8888,-25.944 7.514,-31.982 l 97.473,-27.601 41.002,-80.32 10.77,-6.6305 z"
                fill="#1b97ca"
                style="paint-order:fill markers stroke"
                id="path11"/></g>
    <path
            d="M 406.47947,25.630155 183.59662,113.64212 33.111968,385.38782 157.13774,626.4864 354.25582,681.29633 c 0.19569,0.28853 4.52668,6.38452 2.81472,28.08045 -2.05472,12.32866 -23.59221,30.90399 -23.59221,30.90399 L 395.66082,786.26323 394.32511,638.63937 187.44229,590.8373 86.096969,386.09175 207.47959,150.95396 410.40162,74.024381 586.99613,141.20688 602.75459,163.22262 664.39983,156.12986 630.40171,99.080711 598.19184,99.011888 412.3875,25.639175 c -1.00922,-0.07588 -2.02118,0.09333 -2.95608,0.49506 -0.93491,-0.401609 -1.94777,-0.570806 -2.95707,-0.49506 z m 360.78512,351.706665 -63.16681,29.20987 0.44528,32.38439 -74.6786,146.40229 -213.68675,53.97267 -0.2263,146.94346 60.92563,-45.98245 c 0,0 -21.12554,-17.9071 -23.18045,-30.23537 -3.54177,-21.25102 5.87414,-25.70986 5.87414,-25.70986 l 192.71611,-53.59816 83.18254,-169.9043 29.50399,-15.42611 z"
            fill="none"
            stroke="#000"
            stroke-linecap="square"
            stroke-miterlimit="10.9"
            stroke-width="3.722"
            style="stroke:#000000;stroke-width:12.0039;stroke-dasharray:none;stroke-opacity:1;paint-order:fill markers stroke"
            id="path12"/></svg>
